<svg xmlns="http://www.w3.org/2000/svg" width="192" height="80" viewBox="0 0 192 80"><g fill="#282828"><path d="M60.164 68.068h5.104v1.026h-3.867v3.149h3.572v1.012h-3.572v4.288h-1.237v-9.475zM67.14 68.068h1.237v8.451h4.049v1.025H67.14v-9.476zM81.496 72.708c0 3.248-1.983 4.991-4.401 4.991-2.516 0-4.26-1.954-4.26-4.823 0-3.008 1.856-4.976 4.387-4.976 2.601 0 4.274 1.983 4.274 4.808zm-7.368.142c0 2.037 1.097 3.851 3.037 3.851s3.037-1.785 3.037-3.935c0-1.899-.985-3.869-3.023-3.869-2.038-.001-3.051 1.885-3.051 3.953zM91.31 72.708c0 3.248-1.983 4.991-4.401 4.991-2.516 0-4.26-1.954-4.26-4.823 0-3.008 1.856-4.976 4.387-4.976 2.602 0 4.274 1.983 4.274 4.808zm-7.367.142c0 2.037 1.096 3.851 3.037 3.851s3.037-1.785 3.037-3.935c0-1.899-.984-3.869-3.023-3.869-2.038-.001-3.051 1.885-3.051 3.953zM93.309 68.195a14.276 14.276 0 0 1 2.348-.198c1.308 0 2.165.253 2.741.774.463.42.746 1.068.746 1.812 0 1.236-.787 2.066-1.771 2.406v.042c.717.252 1.152.927 1.377 1.911.311 1.322.535 2.234.73 2.601h-1.265c-.153-.28-.366-1.083-.618-2.263-.281-1.309-.803-1.801-1.913-1.842h-1.153v4.104h-1.223v-9.347zm1.223 4.317h1.252c1.308 0 2.137-.717 2.137-1.8 0-1.224-.886-1.758-2.179-1.758-.591 0-.999.042-1.21.097v3.461zM102.801 68.068v9.477h-1.236v-9.477h1.236zM105.348 77.544v-9.478h1.35l3.023 4.795c.688 1.111 1.252 2.109 1.687 3.08l.042-.014c-.112-1.266-.141-2.419-.141-3.895v-3.965h1.152v9.477h-1.236l-3.009-4.809c-.661-1.053-1.293-2.137-1.758-3.163l-.042.015c.07 1.195.084 2.333.084 3.908v4.049h-1.152zM122.234 77.123c-.549.21-1.645.52-2.924.52-1.435 0-2.615-.365-3.543-1.252-.815-.787-1.322-2.051-1.322-3.529 0-2.824 1.955-4.892 5.133-4.892 1.096 0 1.968.238 2.376.436l-.31.999c-.506-.238-1.14-.408-2.096-.408-2.306 0-3.811 1.434-3.811 3.811 0 2.404 1.435 3.824 3.656 3.824.803 0 1.351-.111 1.631-.253v-2.827h-1.912v-.984h3.121v4.555h.001zM128.762 76.055c.547.353 1.334.618 2.178.618 1.252 0 1.983-.661 1.983-1.616 0-.873-.506-1.393-1.786-1.871-1.546-.562-2.502-1.377-2.502-2.699 0-1.477 1.223-2.573 3.065-2.573.957 0 1.674.226 2.082.463l-.337.999c-.295-.184-.928-.45-1.786-.45-1.293 0-1.785.774-1.785 1.421 0 .885.577 1.32 1.884 1.827 1.602.618 2.404 1.392 2.404 2.783 0 1.462-1.068 2.741-3.305 2.741-.914 0-1.912-.28-2.418-.618l.323-1.025zM138.1 77.544v-4.021l-3.01-5.457h1.406l1.335 2.617c.353.717.647 1.293.942 1.953h.029c.252-.617.59-1.236.955-1.953l1.364-2.617h1.377l-3.163 5.441v4.036H138.1zM143.414 76.055c.548.353 1.335.618 2.179.618 1.253 0 1.983-.661 1.983-1.616 0-.873-.506-1.393-1.786-1.871-1.546-.562-2.502-1.377-2.502-2.699 0-1.477 1.224-2.573 3.065-2.573.957 0 1.674.226 2.082.463l-.338.999c-.295-.184-.928-.45-1.785-.45-1.293 0-1.785.774-1.785 1.421 0 .885.576 1.32 1.884 1.827 1.603.618 2.403 1.392 2.403 2.783 0 1.462-1.068 2.741-3.303 2.741-.914 0-1.912-.28-2.42-.618l.323-1.025zM152.441 69.109h-2.883v-1.041h7.017v1.041h-2.897v8.436h-1.236v-8.436zM162.875 73.102h-3.67v3.418h4.105v1.025h-5.344v-9.477h5.133v1.026h-3.896v2.995h3.67l.002 1.013zM173.225 73.383c-.072-1.32-.154-2.924-.154-4.091h-.029a72.6 72.6 0 0 1-1.193 3.599l-1.675 4.599h-.928l-1.548-4.515c-.449-1.35-.814-2.558-1.082-3.683h-.028a130.423 130.423 0 0 1-.183 4.19l-.254 4.062h-1.166l.66-9.477h1.561l1.617 4.582c.394 1.168.703 2.209.955 3.193h.029c.254-.957.59-1.998 1.012-3.193l1.688-4.582h1.561l.59 9.477h-1.209l-.224-4.161zM176.602 76.055c.547.353 1.334.618 2.178.618 1.253 0 1.984-.661 1.984-1.616 0-.873-.507-1.393-1.787-1.871-1.545-.562-2.502-1.377-2.502-2.699 0-1.477 1.224-2.573 3.065-2.573.957 0 1.674.226 2.082.463l-.337.999c-.295-.184-.928-.45-1.786-.45-1.293 0-1.785.774-1.785 1.421 0 .885.577 1.32 1.884 1.827 1.603.618 2.404 1.392 2.404 2.783 0 1.462-1.068 2.741-3.304 2.741-.914 0-1.912-.28-2.419-.618l.323-1.025z"/></g><path fill="#006CB7" d="M132.925 31.675a4.153 4.153 0 1 0 0 8.307 4.153 4.153 0 0 0 0-8.307m0 18.173c-7.741 0-14.019-6.279-14.019-14.02 0-7.743 6.277-14.019 14.019-14.019 7.743 0 14.021 6.277 14.021 14.019-.001 7.74-6.278 14.02-14.021 14.02zM78.664 31.675h-1.038a4.153 4.153 0 0 0-4.153 4.153v13.5H63.57l.002-13.5c.004-7.743 6.27-14.019 13.973-14.019h1.12l-.001 9.866zM41.541 49.848c-7.744 0-14.021-6.279-14.021-14.02 0-7.743 6.277-14.019 14.021-14.019 7.741 0 14.019 6.277 14.019 14.019 0 7.74-6.278 14.02-14.019 14.02zm91.387-32.196c-9.312 0-16.986 7.007-18.047 16.033-1.059-9.026-8.729-16.033-18.044-16.033v-13.5h-4.151v31.676a4.153 4.153 0 1 0 8.308 0 4.155 4.155 0 0 0-4.157-4.153v-9.866c7.748 0 14.022 6.277 14.022 14.019 0 7.74-6.274 14.02-14.022 14.02-7.741 0-14.018-6.279-14.018-14.02V4.151h-4.155v13.5h-1.12c-9.219 0-16.854 6.936-17.979 15.896-1.123-8.96-8.761-15.896-18.025-15.896-1.806 0-3.547.268-5.194.757v-.236C36.332 8.15 28.2 0 18.174 0S.018 8.148 0 18.171v35.312h4.155V18.171c.016-7.727 6.287-14.019 14.019-14.019s14.002 6.293 14.019 14.021h-9.865a4.154 4.154 0 1 0-8.31-.002v4.157h15.356a18.146 18.146 0 0 0-5.525 9.347h-9.795l-.036 21.808h4.19V35.828h5.157C23.367 45.863 31.502 54 41.541 54c8.923 0 16.342-6.438 17.876-14.922v14.404h18.21V35.828h1.038C78.664 45.865 86.801 54 96.836 54c9.314 0 16.984-7.003 18.044-16.029C115.941 46.997 123.615 54 132.928 54c10.034 0 18.174-8.137 18.174-18.172 0-10.037-8.14-18.176-18.174-18.176zM41.541 31.675a4.153 4.153 0 1 0-.004 8.306 4.153 4.153 0 0 0 .004-8.306"/></svg>